<?xml version="1.0" encoding="UTF-8"?> <!-- Generator: Adobe Illustrator 16.0.0, SVG Export Plug-In . SVG Version: 6.00 Build 0) --> <svg xmlns="http://www.w3.org/2000/svg" xmlns:xlink="http://www.w3.org/1999/xlink" version="1.1" id="Layer_1" x="0px" y="0px" width="657.641px" height="83.16px" viewBox="0 0 657.641 83.16" xml:space="preserve"> <g> <path fill="#FFFFFF" d="M36.963,59.999h-8.091l-3.216-8.367H10.931L7.89,59.999H0l14.348-36.838h7.865L36.963,59.999z M23.269,45.425l-5.076-13.67l-4.975,13.67H23.269z"></path> <path fill="#FFFFFF" d="M40.933,59.999V23.161h15.655c3.937,0,6.797,0.331,8.581,0.993c1.784,0.662,3.212,1.839,4.284,3.53 c1.072,1.692,1.607,3.627,1.607,5.805c0,2.764-0.812,5.047-2.438,6.848s-4.054,2.937-7.287,3.404 c1.608,0.938,2.936,1.969,3.983,3.091s2.458,3.116,4.234,5.98l4.498,7.187h-8.895l-5.377-8.017c-1.91-2.863-3.216-4.67-3.92-5.414 c-0.704-0.745-1.449-1.258-2.236-1.533c-0.788-0.276-2.036-0.414-3.744-0.414h-1.508v15.378H40.933z M48.371,38.741h5.503 c3.568,0,5.796-0.151,6.684-0.453c0.888-0.301,1.583-0.82,2.085-1.558c0.503-0.736,0.754-1.658,0.754-2.764 c0-1.239-0.331-2.24-0.993-3.003c-0.662-0.762-1.595-1.244-2.802-1.445c-0.603-0.083-2.412-0.125-5.427-0.125H48.37L48.371,38.741 L48.371,38.741z"></path> <path fill="#FFFFFF" d="M77.972,59.999V23.161h11.132l6.684,25.128l6.609-25.128h11.157v36.838h-6.91V31.002l-7.312,28.997H92.17 l-7.287-28.997v28.997H77.972z"></path> <path fill="#FFFFFF" d="M154.159,59.999h-8.091l-3.216-8.367h-14.725l-3.041,8.367h-7.89l14.348-36.838h7.865L154.159,59.999z M140.465,45.425l-5.076-13.67l-4.975,13.67H140.465z"></path> <path fill="#FFFFFF" d="M158.18,59.999V23.161h7.237l15.077,24.601V23.161h6.91v36.838h-7.463L165.09,35.977v24.022H158.18z"></path> <path fill="#FFFFFF" d="M195.243,23.161h13.594c3.066,0,5.403,0.235,7.011,0.704c2.161,0.637,4.012,1.768,5.553,3.393 c1.542,1.625,2.714,3.614,3.518,5.968s1.206,5.256,1.206,8.706c0,3.032-0.377,5.646-1.131,7.841 c-0.921,2.68-2.236,4.85-3.945,6.508c-1.291,1.256-3.032,2.236-5.227,2.938c-1.642,0.521-3.836,0.779-6.583,0.779h-13.997V23.161 H195.243z M202.681,29.394v24.398h5.553c2.077,0,3.577-0.116,4.498-0.353c1.206-0.302,2.207-0.812,3.003-1.531 c0.795-0.721,1.445-1.905,1.947-3.557c0.502-1.65,0.754-3.898,0.754-6.747s-0.251-5.034-0.754-6.559 c-0.503-1.525-1.206-2.714-2.111-3.568s-2.052-1.432-3.442-1.733c-1.039-0.234-3.074-0.352-6.106-0.352L202.681,29.394 L202.681,29.394z"></path> <path fill="#FFFFFF" d="M230.925,41.807c0-3.753,0.561-6.901,1.684-9.448c0.838-1.876,1.981-3.56,3.431-5.051 c1.448-1.491,3.036-2.597,4.762-3.316c2.295-0.972,4.941-1.458,7.94-1.458c5.427,0,9.77,1.684,13.028,5.051 s4.888,8.05,4.888,14.047c0,5.946-1.617,10.601-4.851,13.958c-3.232,3.359-7.555,5.038-12.966,5.038 c-5.479,0-9.833-1.671-13.066-5.013C232.542,52.273,230.925,47.67,230.925,41.807z M238.589,41.555c0,4.171,0.963,7.333,2.89,9.486 s4.372,3.229,7.337,3.229c2.966,0,5.398-1.066,7.301-3.203c1.9-2.135,2.852-5.34,2.852-9.61c0-4.222-0.926-7.371-2.777-9.448 c-1.851-2.077-4.31-3.116-7.375-3.116c-3.064,0-5.537,1.052-7.412,3.153C239.526,34.146,238.589,37.317,238.589,41.555z"></path> <path fill="#FFFFFF" d="M286.733,23.161h13.595c3.065,0,5.402,0.235,7.011,0.704c2.161,0.637,4.012,1.768,5.553,3.393 s2.714,3.614,3.519,5.968c0.804,2.354,1.206,5.256,1.206,8.706c0,3.032-0.377,5.646-1.131,7.841 c-0.922,2.68-2.236,4.85-3.945,6.508c-1.291,1.256-3.032,2.236-5.228,2.938c-1.642,0.521-3.836,0.779-6.583,0.779h-13.997 L286.733,23.161L286.733,23.161z M294.172,29.394v24.398h5.553c2.077,0,3.577-0.116,4.498-0.353 c1.206-0.302,2.207-0.812,3.003-1.531c0.795-0.721,1.445-1.905,1.947-3.557c0.502-1.65,0.754-3.898,0.754-6.747 s-0.251-5.034-0.754-6.559c-0.503-1.525-1.206-2.714-2.111-3.568c-0.904-0.854-2.052-1.432-3.441-1.733 c-1.039-0.234-3.074-0.352-6.106-0.352L294.172,29.394L294.172,29.394z"></path> <path fill="#FFFFFF" d="M323.923,59.999V23.161h27.314v6.232H331.36v8.166h18.494v6.207H331.36v10.025h20.58v6.207L323.923,59.999 L323.923,59.999z"></path> <path fill="#FFFFFF" d="M358.449,59.999V23.463h7.438v30.329h18.494v6.207H358.449z"></path> <path fill="#FFFFFF" d="M403.075,59.999V23.161h15.654c3.938,0,6.797,0.331,8.581,0.993c1.784,0.662,3.214,1.839,4.284,3.53 c1.072,1.692,1.608,3.627,1.608,5.805c0,2.764-0.812,5.047-2.438,6.848s-4.055,2.937-7.287,3.404 c1.608,0.938,2.937,1.969,3.982,3.091s2.459,3.116,4.234,5.98l4.498,7.187h-8.896l-5.378-8.017c-1.909-2.863-3.216-4.67-3.92-5.414 c-0.704-0.745-1.449-1.258-2.236-1.533c-0.788-0.276-2.036-0.414-3.744-0.414h-1.508v15.378H403.075z M410.514,38.741h5.503 c3.568,0,5.796-0.151,6.685-0.453c0.889-0.301,1.584-0.82,2.086-1.558c0.503-0.736,0.754-1.658,0.754-2.764 c0-1.239-0.331-2.24-0.992-3.003c-0.662-0.762-1.596-1.244-2.803-1.445c-0.604-0.083-2.412-0.125-5.427-0.125h-5.806V38.741 L410.514,38.741z"></path> <path fill="#FFFFFF" d="M439.989,59.999V23.161h7.438v36.838H439.989z"></path> <path fill="#FFFFFF" d="M453.005,41.807c0-3.753,0.561-6.901,1.684-9.448c0.838-1.876,1.98-3.56,3.431-5.051 c1.45-1.491,3.036-2.597,4.762-3.316c2.295-0.972,4.94-1.458,7.94-1.458c5.428,0,9.771,1.684,13.028,5.051 c3.259,3.367,4.888,8.05,4.888,14.047c0,5.946-1.616,10.601-4.851,13.958c-3.231,3.359-7.555,5.038-12.966,5.038 c-5.479,0-9.834-1.671-13.066-5.013C454.623,52.273,453.005,47.67,453.005,41.807z M460.669,41.555c0,4.171,0.963,7.333,2.89,9.486 s4.372,3.229,7.337,3.229c2.967,0,5.398-1.066,7.301-3.203c1.901-2.135,2.853-5.34,2.853-9.61c0-4.222-0.926-7.371-2.776-9.448 c-1.852-2.077-4.31-3.116-7.376-3.116c-3.064,0-5.536,1.052-7.411,3.153C461.606,34.146,460.669,37.317,460.669,41.555z"></path> </g> </svg> 