<?xml version="1.0" encoding="utf-8"?>
<!-- Generator: Adobe Illustrator 22.0.1, SVG Export Plug-In . SVG Version: 6.00 Build 0)  -->
<svg version="1.1" id="Layer_1" xmlns="http://www.w3.org/2000/svg" xmlns:xlink="http://www.w3.org/1999/xlink" x="0px" y="0px"
	 viewBox="0 0 200.4 38.4" style="enable-background:new 0 0 200.4 38.4;" xml:space="preserve">
<style type="text/css">
	.st0{fill:#002D6A;}
	.st1{fill:#CCCCCC;}
	.st2{fill:url(#SVGID_1_);}
	.st3{fill:url(#SVGID_2_);}
	.st4{fill:url(#SVGID_3_);}
	.st5{fill:url(#SVGID_4_);}
	.st6{fill:url(#SVGID_5_);}
	.st7{fill:url(#SVGID_6_);}
	.st8{fill:url(#SVGID_7_);}
	.st9{fill:url(#SVGID_8_);}
	.st10{fill:url(#SVGID_9_);}
	.st11{fill:url(#SVGID_10_);}
	.st12{fill:url(#SVGID_11_);}
	.st13{fill:url(#SVGID_12_);}
	.st14{fill:url(#SVGID_13_);}
	.st15{fill:url(#SVGID_14_);}
	.st16{fill:url(#SVGID_15_);}
	.st17{fill:url(#SVGID_16_);}
	.st18{fill:url(#SVGID_17_);}
	.st19{fill:url(#SVGID_18_);}
	.st20{fill:url(#SVGID_19_);}
	.st21{fill:url(#SVGID_20_);}
	.st22{fill:url(#SVGID_21_);}
	.st23{fill:url(#SVGID_22_);}
	.st24{fill:url(#SVGID_23_);}
	.st25{fill:url(#SVGID_24_);}
	.st26{fill:url(#SVGID_25_);}
	.st27{fill:#333333;}
	.st28{fill:url(#SVGID_26_);}
	.st29{fill:url(#SVGID_27_);}
	.st30{fill:url(#SVGID_28_);}
	.st31{fill:url(#SVGID_29_);}
	.st32{fill:url(#SVGID_30_);}
</style>
<g>
	<g>
		<path class="st0" d="M81.4,33.9L81.4,33.9c0-2.3,1.7-4.1,4-4.1c1.4,0,2.3,0.5,3.1,1.3l-0.6,0.7c-0.7-0.6-1.4-1.1-2.5-1.1
			c-1.8,0-3.1,1.4-3.1,3.2v0c0,1.8,1.3,3.3,3.1,3.3c1.1,0,1.8-0.4,2.6-1.1l0.6,0.6c-0.8,0.8-1.7,1.4-3.2,1.4
			C83.1,38,81.4,36.2,81.4,33.9z"/>
		<path class="st0" d="M89.5,34.9L89.5,34.9c0-1.7,1.3-3.1,3.1-3.1c1.8,0,3,1.4,3,3v0c0,1.7-1.3,3.1-3.1,3.1
			C90.7,38,89.5,36.6,89.5,34.9z M94.7,34.9L94.7,34.9c0-1.3-0.9-2.3-2.2-2.3c-1.3,0-2.1,1-2.1,2.3v0c0,1.3,0.9,2.3,2.2,2.3
			C93.8,37.2,94.7,36.2,94.7,34.9z"/>
		<path class="st0" d="M97.1,32H98v1c0.4-0.6,1-1.1,2-1.1c1.4,0,2.2,1,2.2,2.3v3.6h-0.9v-3.4c0-1.1-0.6-1.8-1.6-1.8
			c-1,0-1.8,0.7-1.8,1.8v3.3h-0.9V32z"/>
		<path class="st0" d="M103.7,34.9L103.7,34.9c0-1.7,1.3-3.1,3-3.1c1.1,0,1.8,0.5,2.3,1l-0.6,0.6c-0.5-0.5-1-0.9-1.8-0.9
			c-1.2,0-2.1,1-2.1,2.3v0c0,1.3,0.9,2.3,2.1,2.3c0.7,0,1.3-0.4,1.8-0.9l0.6,0.5c-0.6,0.7-1.3,1.1-2.4,1.1
			C105,38,103.7,36.6,103.7,34.9z"/>
		<path class="st0" d="M113,37.2c0.8,0,1.4-0.3,1.8-0.8l0.5,0.5c-0.6,0.7-1.3,1.1-2.4,1.1c-1.6,0-2.9-1.2-2.9-3.1
			c0-1.7,1.2-3.1,2.8-3.1c1.7,0,2.7,1.4,2.7,3.1c0,0.1,0,0.2,0,0.3h-4.6C111,36.5,111.9,37.2,113,37.2z M114.7,34.6
			c-0.1-1.1-0.7-2-1.9-2c-1,0-1.8,0.8-1.9,2H114.7z"/>
		<path class="st0" d="M116.6,37.1l0.4-0.6c0.6,0.5,1.3,0.7,2,0.7c0.7,0,1.2-0.4,1.2-0.9v0c0-0.6-0.7-0.8-1.5-1
			c-0.9-0.3-1.9-0.6-1.9-1.7v0c0-1,0.8-1.7,2-1.7c0.7,0,1.5,0.2,2.1,0.6l-0.4,0.7c-0.5-0.3-1.2-0.6-1.7-0.6c-0.7,0-1.1,0.4-1.1,0.8
			v0c0,0.6,0.7,0.8,1.5,1c0.9,0.3,1.9,0.6,1.9,1.7v0c0,1.1-0.9,1.8-2.1,1.8C118.2,37.9,117.2,37.6,116.6,37.1z"/>
		<path class="st0" d="M122.7,29.7h1v1h-1V29.7z M122.8,32h0.9v5.8h-0.9V32z"/>
		<path class="st0" d="M125.3,34.9L125.3,34.9c0-1.7,1.3-3.1,3.1-3.1c1.8,0,3,1.4,3,3v0c0,1.7-1.3,3.1-3.1,3.1
			C126.6,38,125.3,36.6,125.3,34.9z M130.5,34.9L130.5,34.9c0-1.3-0.9-2.3-2.2-2.3c-1.3,0-2.1,1-2.1,2.3v0c0,1.3,0.9,2.3,2.2,2.3
			C129.6,37.2,130.5,36.2,130.5,34.9z"/>
		<path class="st0" d="M133,32h0.9v1c0.4-0.6,1-1.1,2-1.1c1.4,0,2.2,1,2.2,2.3v3.6h-0.9v-3.4c0-1.1-0.6-1.8-1.6-1.8
			c-1,0-1.8,0.7-1.8,1.8v3.3H133V32z"/>
		<path class="st0" d="M139.5,36.1L139.5,36.1c0-1.3,1-1.9,2.5-1.9c0.7,0,1.3,0.1,1.8,0.2v-0.2c0-1-0.6-1.6-1.7-1.6
			c-0.7,0-1.2,0.2-1.8,0.4l-0.3-0.7c0.6-0.3,1.3-0.5,2.1-0.5c0.8,0,1.5,0.2,1.9,0.6c0.4,0.4,0.6,1,0.6,1.7v3.6h-0.9V37
			c-0.4,0.5-1.1,1-2.1,1C140.6,38,139.5,37.3,139.5,36.1z M143.8,35.7v-0.5c-0.4-0.1-1-0.2-1.7-0.2c-1.1,0-1.7,0.5-1.7,1.2v0
			c0,0.7,0.7,1.2,1.5,1.2C142.9,37.3,143.8,36.6,143.8,35.7z"/>
		<path class="st0" d="M146.5,32h0.9v1.5c0.4-1,1.3-1.7,2.4-1.6v0.9h-0.1c-1.3,0-2.3,0.9-2.3,2.7v2.3h-0.9V32z"/>
		<path class="st0" d="M151.1,29.7h1v1h-1V29.7z M151.2,32h0.9v5.8h-0.9V32z"/>
		<path class="st0" d="M153.7,34.9L153.7,34.9c0-1.7,1.3-3.1,3.1-3.1c1.8,0,3,1.4,3,3v0c0,1.7-1.3,3.1-3.1,3.1
			C155,38,153.7,36.6,153.7,34.9z M158.9,34.9L158.9,34.9c0-1.3-0.9-2.3-2.2-2.3c-1.3,0-2.1,1-2.1,2.3v0c0,1.3,0.9,2.3,2.2,2.3
			C158,37.2,158.9,36.2,158.9,34.9z"/>
		<path class="st0" d="M164.6,33.9L164.6,33.9c0-2.2,1.6-4.1,4-4.1c2.4,0,4,1.9,4,4.1c0,0,0,0,0,0c0,2.2-1.6,4.1-4,4.1
			C166.2,38,164.6,36.1,164.6,33.9z M171.7,33.9L171.7,33.9c0-1.8-1.3-3.3-3.1-3.3c-1.8,0-3.1,1.4-3.1,3.2v0c0,1.8,1.3,3.3,3.1,3.3
			C170.4,37.1,171.7,35.7,171.7,33.9z"/>
		<path class="st0" d="M174.7,32.8h-0.8V32h0.8v-0.5c0-0.7,0.2-1.2,0.5-1.5c0.3-0.3,0.7-0.5,1.3-0.5c0.4,0,0.7,0,1,0.1v0.8
			c-0.3-0.1-0.6-0.1-0.8-0.1c-0.7,0-1,0.4-1,1.2V32h1.9v0.7h-1.8v5.1h-0.9V32.8z"/>
		<path class="st0" d="M178.6,29.7h1v1h-1V29.7z M178.6,32h0.9v5.8h-0.9V32z"/>
		<path class="st0" d="M181.1,34.9L181.1,34.9c0-1.7,1.3-3.1,3-3.1c1.1,0,1.8,0.5,2.3,1l-0.6,0.6c-0.5-0.5-1-0.9-1.8-0.9
			c-1.2,0-2.1,1-2.1,2.3v0c0,1.3,0.9,2.3,2.1,2.3c0.7,0,1.3-0.4,1.8-0.9l0.6,0.5c-0.6,0.7-1.3,1.1-2.4,1.1
			C182.4,38,181.1,36.6,181.1,34.9z"/>
		<path class="st0" d="M188,29.7h1v1h-1V29.7z M188,32h0.9v5.8H188V32z"/>
		<path class="st0" d="M190.5,36.1L190.5,36.1c0-1.3,1-1.9,2.5-1.9c0.7,0,1.3,0.1,1.8,0.2v-0.2c0-1-0.6-1.6-1.7-1.6
			c-0.7,0-1.2,0.2-1.8,0.4l-0.3-0.7c0.6-0.3,1.3-0.5,2.1-0.5c0.8,0,1.5,0.2,1.9,0.6c0.4,0.4,0.6,1,0.6,1.7v3.6h-0.9V37
			c-0.4,0.5-1.1,1-2.1,1C191.6,38,190.5,37.3,190.5,36.1z M194.8,35.7v-0.5c-0.4-0.1-1-0.2-1.7-0.2c-1.1,0-1.7,0.5-1.7,1.2v0
			c0,0.7,0.7,1.2,1.5,1.2C193.9,37.3,194.8,36.6,194.8,35.7z"/>
		<path class="st0" d="M197.6,29.6h0.9v8.3h-0.9V29.6z"/>
	</g>
	<g>
		<polygon class="st0" points="69.2,38.1 69.2,0 70.1,0 70.1,38.1 69.2,38.1 		"/>
	</g>
	<g>
		<g>
			<path class="st1" d="M30.8,7.4C13.7,7.4,0,12.5,0,19c0,6.4,13.8,11.6,30.9,11.6c17,0,30.9-5.2,30.9-11.6
				C61.7,12.6,47.8,7.4,30.8,7.4z M61.5,18.1c0,0.1,0,0.1,0,0.2C61.5,18.2,61.5,18.1,61.5,18.1z"/>
		</g>
		
			<radialGradient id="SVGID_1_" cx="-1188.7432" cy="-441.9102" r="106.2678" gradientTransform="matrix(1.2536 0 0 1.2225 1520.7953 675.2349)" gradientUnits="userSpaceOnUse">
			<stop  offset="0" style="stop-color:#000000"/>
			<stop  offset="0.2164" style="stop-color:#00000C"/>
			<stop  offset="0.476" style="stop-color:#000023"/>
			<stop  offset="0.7" style="stop-color:#000033"/>
			<stop  offset="0.9045" style="stop-color:#004282"/>
			<stop  offset="0.9204" style="stop-color:#0063A1"/>
			<stop  offset="0.936" style="stop-color:#0184C0"/>
			<stop  offset="0.948" style="stop-color:#159BD5"/>
			<stop  offset="0.955" style="stop-color:#1CA6DF"/>
		</radialGradient>
		<path class="st2" d="M30.8,7.8c-16.8,0-30.4,5-30.4,11.1C0.4,25.1,14,30,30.8,30c16.8,0,30.4-5,30.4-11.1
			C61.2,12.8,47.6,7.8,30.8,7.8z"/>
		<g>
			<g>
				
					<linearGradient id="SVGID_2_" gradientUnits="userSpaceOnUse" x1="1665.6377" y1="3828.9856" x2="1665.6377" y2="3795.3926" gradientTransform="matrix(0.7 0 0 0.7 -1135.186 -2649.5164)">
					<stop  offset="0" style="stop-color:#00053D"/>
					<stop  offset="0.1748" style="stop-color:#000840"/>
					<stop  offset="0.3297" style="stop-color:#001046"/>
					<stop  offset="0.4771" style="stop-color:#001950"/>
					<stop  offset="0.6198" style="stop-color:#00245D"/>
					<stop  offset="0.758" style="stop-color:#002F6E"/>
					<stop  offset="0.809" style="stop-color:#003475"/>
					<stop  offset="0.9226" style="stop-color:#005793"/>
					<stop  offset="1" style="stop-color:#006DA9"/>
				</linearGradient>
				<path class="st3" d="M2.9,19.4c0-5.1,12.6-9.2,28.1-9.2c14.3,0,26.1,3.5,27.9,8c-1.2-4.7-13.3-8.5-28-8.5
					c-15.5,0-28.1,4.1-28.1,9.3c0,0.4,0.1,0.8,0.2,1.2C2.9,19.9,2.9,19.6,2.9,19.4z"/>
				
					<linearGradient id="SVGID_3_" gradientUnits="userSpaceOnUse" x1="1666.181" y1="3828.9883" x2="1666.181" y2="3795.3889" gradientTransform="matrix(0.7 0 0 0.7 -1135.186 -2649.5164)">
					<stop  offset="0" style="stop-color:#00053D"/>
					<stop  offset="0.1748" style="stop-color:#000840"/>
					<stop  offset="0.3297" style="stop-color:#001046"/>
					<stop  offset="0.4771" style="stop-color:#001950"/>
					<stop  offset="0.6198" style="stop-color:#00245D"/>
					<stop  offset="0.758" style="stop-color:#002F6E"/>
					<stop  offset="0.809" style="stop-color:#003475"/>
					<stop  offset="0.9226" style="stop-color:#005793"/>
					<stop  offset="1" style="stop-color:#006DA9"/>
				</linearGradient>
				<path class="st4" d="M59.7,17.8c0.1,0.4,0.2,0.8,0.2,1.2c0,5.6-13,10.1-29.1,10.1c-14.3,0-26.2-3.6-28.7-8.3
					C4,25.7,16.2,29.5,31,29.5c16.1,0,29.1-4.5,29.1-10C60.1,18.9,60,18.3,59.7,17.8z"/>
			</g>
			<g>
				
					<linearGradient id="SVGID_4_" gradientUnits="userSpaceOnUse" x1="1673.2184" y1="3819.1304" x2="1673.2184" y2="3795.8535" gradientTransform="matrix(0.7 0 0 0.7 -1135.1738 -2646.6572)">
					<stop  offset="0" style="stop-color:#00053D"/>
					<stop  offset="0.1748" style="stop-color:#000840"/>
					<stop  offset="0.3297" style="stop-color:#001046"/>
					<stop  offset="0.4771" style="stop-color:#001950"/>
					<stop  offset="0.6198" style="stop-color:#00245D"/>
					<stop  offset="0.758" style="stop-color:#002F6E"/>
					<stop  offset="0.809" style="stop-color:#003475"/>
					<stop  offset="0.9226" style="stop-color:#005793"/>
					<stop  offset="1" style="stop-color:#006DA9"/>
				</linearGradient>
				<path class="st5" d="M36.2,19.9c-0.7,0.7-0.7,1.6-0.3,2c0.2,0.1,0.3,0.2,0.5,0.2c-0.3-0.4-0.4-1-0.1-1.6c-0.1-0.2-0.1-0.3,0-0.5
					C36.4,19.9,36.3,19.9,36.2,19.9z"/>
				
					<linearGradient id="SVGID_5_" gradientUnits="userSpaceOnUse" x1="1683.1708" y1="3819.2336" x2="1683.1708" y2="3795.6072" gradientTransform="matrix(0.7 0 0 0.7 -1135.1738 -2646.6572)">
					<stop  offset="0" style="stop-color:#00053D"/>
					<stop  offset="0.1748" style="stop-color:#000840"/>
					<stop  offset="0.3297" style="stop-color:#001046"/>
					<stop  offset="0.4771" style="stop-color:#001950"/>
					<stop  offset="0.6198" style="stop-color:#00245D"/>
					<stop  offset="0.758" style="stop-color:#002F6E"/>
					<stop  offset="0.809" style="stop-color:#003475"/>
					<stop  offset="0.9226" style="stop-color:#005793"/>
					<stop  offset="1" style="stop-color:#006DA9"/>
				</linearGradient>
				<path class="st6" d="M43,21.4C43,21.4,43,21.4,43,21.4C43,21.4,43,21.4,43,21.4c0,0.1,0,0.3,0.1,0.4c0-0.1,0.1-0.1,0.1-0.2
					c0-0.1,0-0.1,0-0.1C43,21.5,43,21.5,43,21.4z"/>
				
					<linearGradient id="SVGID_6_" gradientUnits="userSpaceOnUse" x1="1684.6146" y1="3818.3088" x2="1684.6146" y2="3796.7036" gradientTransform="matrix(0.7 0 0 0.7 -1135.1738 -2646.6572)">
					<stop  offset="0" style="stop-color:#00053D"/>
					<stop  offset="0.1748" style="stop-color:#000840"/>
					<stop  offset="0.3297" style="stop-color:#001046"/>
					<stop  offset="0.4771" style="stop-color:#001950"/>
					<stop  offset="0.6198" style="stop-color:#00245D"/>
					<stop  offset="0.758" style="stop-color:#002F6E"/>
					<stop  offset="0.809" style="stop-color:#003475"/>
					<stop  offset="0.9226" style="stop-color:#005793"/>
					<stop  offset="1" style="stop-color:#006DA9"/>
				</linearGradient>
				<path class="st7" d="M44.1,19.8c0,0.1,0.1,0.1,0.2,0c0,0,0-0.1,0.1-0.1c0,0,0,0-0.1-0.1c-0.1-0.1-0.3-0.4-0.5-0.5
					C44,19.4,44.1,19.6,44.1,19.8z"/>
				
					<linearGradient id="SVGID_7_" gradientUnits="userSpaceOnUse" x1="1671.6155" y1="3818.6335" x2="1671.6155" y2="3796.2554" gradientTransform="matrix(0.7 0 0 0.7 -1135.1738 -2646.6572)">
					<stop  offset="0" style="stop-color:#00053D"/>
					<stop  offset="0.1748" style="stop-color:#000840"/>
					<stop  offset="0.3297" style="stop-color:#001046"/>
					<stop  offset="0.4771" style="stop-color:#001950"/>
					<stop  offset="0.6198" style="stop-color:#00245D"/>
					<stop  offset="0.758" style="stop-color:#002F6E"/>
					<stop  offset="0.809" style="stop-color:#003475"/>
					<stop  offset="0.9226" style="stop-color:#005793"/>
					<stop  offset="1" style="stop-color:#006DA9"/>
				</linearGradient>
				<path class="st8" d="M35.1,19.8c0,0,0.1-0.1,0.1-0.1c-0.1-0.4-0.3-0.8-0.5-0.9c0.2,0.2,0.3,0.6,0.2,1
					C35,19.9,35.1,19.8,35.1,19.8z"/>
				
					<linearGradient id="SVGID_8_" gradientUnits="userSpaceOnUse" x1="1691.6069" y1="3803.1755" x2="1691.6069" y2="3803.1719" gradientTransform="matrix(0.7 0 0 0.7 -1135.1738 -2646.6572)">
					<stop  offset="0" style="stop-color:#00053D"/>
					<stop  offset="0.1748" style="stop-color:#000840"/>
					<stop  offset="0.3297" style="stop-color:#001046"/>
					<stop  offset="0.4771" style="stop-color:#001950"/>
					<stop  offset="0.6198" style="stop-color:#00245D"/>
					<stop  offset="0.758" style="stop-color:#002F6E"/>
					<stop  offset="0.809" style="stop-color:#003475"/>
					<stop  offset="0.9226" style="stop-color:#005793"/>
					<stop  offset="1" style="stop-color:#006DA9"/>
				</linearGradient>
				<polygon class="st9" points="49,15.6 49,15.6 49,15.6 				"/>
				
					<linearGradient id="SVGID_9_" gradientUnits="userSpaceOnUse" x1="1680.9639" y1="3819.2095" x2="1680.9639" y2="3795.657" gradientTransform="matrix(0.7 0 0 0.7 -1135.1738 -2646.6572)">
					<stop  offset="0" style="stop-color:#00053D"/>
					<stop  offset="0.1748" style="stop-color:#000840"/>
					<stop  offset="0.3297" style="stop-color:#001046"/>
					<stop  offset="0.4771" style="stop-color:#001950"/>
					<stop  offset="0.6198" style="stop-color:#00245D"/>
					<stop  offset="0.758" style="stop-color:#002F6E"/>
					<stop  offset="0.809" style="stop-color:#003475"/>
					<stop  offset="0.9226" style="stop-color:#005793"/>
					<stop  offset="1" style="stop-color:#006DA9"/>
				</linearGradient>
				<path class="st10" d="M40.1,24c0.1,0,0.2,0.1,0.2,0.1c0-0.1,0-0.2,0-0.3c0-0.8,0.2-1.5,0.8-2.3c0.7-0.9,1.5-1.4,2.1-1.1
					c0-0.2-0.1-0.4-0.4-0.5c-0.5-0.3-1.4,0.2-2.1,1.1c-0.6,0.7-0.9,1.5-0.9,2.2C39.8,23.5,39.9,23.8,40.1,24z"/>
				
					<linearGradient id="SVGID_10_" gradientUnits="userSpaceOnUse" x1="1660.5852" y1="3819.2092" x2="1660.5852" y2="3795.6604" gradientTransform="matrix(0.7 0 0 0.7 -1135.1738 -2646.6572)">
					<stop  offset="0" style="stop-color:#00053D"/>
					<stop  offset="0.1748" style="stop-color:#000840"/>
					<stop  offset="0.3297" style="stop-color:#001046"/>
					<stop  offset="0.4771" style="stop-color:#001950"/>
					<stop  offset="0.6198" style="stop-color:#00245D"/>
					<stop  offset="0.758" style="stop-color:#002F6E"/>
					<stop  offset="0.809" style="stop-color:#003475"/>
					<stop  offset="0.9226" style="stop-color:#005793"/>
					<stop  offset="1" style="stop-color:#006DA9"/>
				</linearGradient>
				<path class="st11" d="M28.7,20c0.1,0,0.1-0.1,0.1-0.2c0-0.1-0.1-0.5-0.2-0.6l0,0c0,0.1,0,0.1-0.1,0.2c-0.8,0.3-1.7,0.8-2.2,1.6
					c-0.6,0.9-0.8,1.9-0.4,2.5c0.1,0.1,0.2,0.2,0.4,0.3c-0.2-0.7-0.1-1.7,0.5-2.4C27.3,20.6,28,20.3,28.7,20z"/>
				
					<linearGradient id="SVGID_11_" gradientUnits="userSpaceOnUse" x1="1670.7667" y1="3819.2021" x2="1670.7667" y2="3795.8127" gradientTransform="matrix(0.7 0 0 0.7 -1135.1738 -2646.6572)">
					<stop  offset="0" style="stop-color:#00053D"/>
					<stop  offset="0.1748" style="stop-color:#000840"/>
					<stop  offset="0.3297" style="stop-color:#001046"/>
					<stop  offset="0.4771" style="stop-color:#001950"/>
					<stop  offset="0.6198" style="stop-color:#00245D"/>
					<stop  offset="0.758" style="stop-color:#002F6E"/>
					<stop  offset="0.809" style="stop-color:#003475"/>
					<stop  offset="0.9226" style="stop-color:#005793"/>
					<stop  offset="1" style="stop-color:#006DA9"/>
				</linearGradient>
				<path class="st12" d="M37.9,22.7c-0.2,0.1-0.5,0.3-0.8,0.4c-0.4,0.1-0.6,0.2-0.9,0.2c-0.5,0-0.9-0.2-1.2-0.6
					c-0.2-0.2-0.2-0.6-0.2-0.9c0,0,0-0.1-0.1,0c-0.8,1.2-1.5,2.3-2.3,3.5c0,0.1-0.1,0.1-0.2,0.1c-0.5,0-1,0-1.5,0
					c-0.1,0-0.1,0-0.1-0.1c0,0.2,0.1,0.5,0.1,0.6c0,0.1,0.1,0.1,0.1,0.1c0.6,0,1.2,0,1.7,0c0.1,0,0.1,0,0.2-0.1
					c0.7-1.1,1.4-2.3,2.1-3.4c0.2,0.5,0.2,0.8,0.5,1.1c0.3,0.3,0.6,0.3,1,0.3c0.4,0,0.7-0.1,1.1-0.3c0.2-0.1,0.3-0.1,0.4-0.2
					c0-0.2,0-0.4,0.1-0.6C38,22.7,38,22.6,37.9,22.7z"/>
				
					<linearGradient id="SVGID_12_" gradientUnits="userSpaceOnUse" x1="1683.214" y1="3819.2102" x2="1683.214" y2="3795.6489" gradientTransform="matrix(0.7 0 0 0.7 -1135.1738 -2646.6572)">
					<stop  offset="0" style="stop-color:#00053D"/>
					<stop  offset="0.1748" style="stop-color:#000840"/>
					<stop  offset="0.3297" style="stop-color:#001046"/>
					<stop  offset="0.4771" style="stop-color:#001950"/>
					<stop  offset="0.6198" style="stop-color:#00245D"/>
					<stop  offset="0.758" style="stop-color:#002F6E"/>
					<stop  offset="0.809" style="stop-color:#003475"/>
					<stop  offset="0.9226" style="stop-color:#005793"/>
					<stop  offset="1" style="stop-color:#006DA9"/>
				</linearGradient>
				<path class="st13" d="M48,22.3C48,22.3,48,22.3,48,22.3c-0.8,1-1.6,1.8-2.4,2.4c-1.2,0.9-2.4,1.2-3,0.6
					c-0.2-0.2-0.3-0.5-0.4-0.8c0-0.1-0.1-0.2-0.2-0.1c-0.7,0.7-2,1.5-3.1,0.9c-0.6-0.3-0.9-0.8-1-1.4c0,0,0,0,0,0
					c0.1,0.4,0.2,1,0.4,1.4c0.1,0.2,0.4,0.5,0.6,0.6c1,0.5,2.4-0.1,3.3-0.9c0,0,0,0,0,0c0,0.2,0.1,0.3,0.1,0.4
					c0.1,0.2,0.2,0.4,0.2,0.5c0.6,0.7,2,0.4,3.3-0.7c0.8-0.6,1.3-1.2,2.1-2c0,0,0-0.1,0-0.2C48.1,22.8,48,22.4,48,22.3z"/>
				
					<linearGradient id="SVGID_13_" gradientUnits="userSpaceOnUse" x1="1675.2294" y1="3819.2217" x2="1675.2294" y2="3795.6343" gradientTransform="matrix(0.7 0 0 0.7 -1135.1738 -2646.6572)">
					<stop  offset="0" style="stop-color:#00053D"/>
					<stop  offset="0.1748" style="stop-color:#000840"/>
					<stop  offset="0.3297" style="stop-color:#001046"/>
					<stop  offset="0.4771" style="stop-color:#001950"/>
					<stop  offset="0.6198" style="stop-color:#00245D"/>
					<stop  offset="0.758" style="stop-color:#002F6E"/>
					<stop  offset="0.809" style="stop-color:#003475"/>
					<stop  offset="0.9226" style="stop-color:#005793"/>
					<stop  offset="1" style="stop-color:#006DA9"/>
				</linearGradient>
				<path class="st14" d="M37.9,21.5c0.4-0.2,0.7-0.6,0.7-1.3c0-0.3-0.1-0.7-0.3-1c0.1,0.2,0.2,0.5,0.1,0.7c-0.1,0.4-0.3,0.8-0.7,1
					c-0.3,0.2-0.8,0.1-1-0.1c-0.1-0.1-0.2-0.2-0.2-0.3c0.1,0.3,0.1,0.6,0.2,0.7C36.9,21.6,37.4,21.8,37.9,21.5z"/>
				
					<linearGradient id="SVGID_14_" gradientUnits="userSpaceOnUse" x1="1688.0714" y1="3819.208" x2="1688.0714" y2="3795.6606" gradientTransform="matrix(0.7 0 0 0.7 -1135.1738 -2646.6572)">
					<stop  offset="0" style="stop-color:#00053D"/>
					<stop  offset="0.1748" style="stop-color:#000840"/>
					<stop  offset="0.3297" style="stop-color:#001046"/>
					<stop  offset="0.4771" style="stop-color:#001950"/>
					<stop  offset="0.6198" style="stop-color:#00245D"/>
					<stop  offset="0.758" style="stop-color:#002F6E"/>
					<stop  offset="0.809" style="stop-color:#003475"/>
					<stop  offset="0.9226" style="stop-color:#005793"/>
					<stop  offset="1" style="stop-color:#006DA9"/>
				</linearGradient>
				<path class="st15" d="M49.1,16.4c0-0.1-0.2-0.7-0.2-0.8c0,0,0,0,0,0.1c-0.2,0.4-4.8,7.3-5,8c-0.1,0.2-0.1,0.4,0,0.5
					c0.1,0.1,0.2,0.2,0.4,0.2c0-0.1,0-0.2,0.1-0.3c0.3-0.7,4.5-7.1,4.7-7.6C49.1,16.4,49.1,16.4,49.1,16.4z"/>
				
					<linearGradient id="SVGID_15_" gradientUnits="userSpaceOnUse" x1="1665.3347" y1="3818.9431" x2="1665.3347" y2="3795.946" gradientTransform="matrix(0.7 0 0 0.7 -1135.1738 -2646.6572)">
					<stop  offset="0" style="stop-color:#00053D"/>
					<stop  offset="0.1748" style="stop-color:#000840"/>
					<stop  offset="0.3297" style="stop-color:#001046"/>
					<stop  offset="0.4771" style="stop-color:#001950"/>
					<stop  offset="0.6198" style="stop-color:#00245D"/>
					<stop  offset="0.758" style="stop-color:#002F6E"/>
					<stop  offset="0.809" style="stop-color:#003475"/>
					<stop  offset="0.9226" style="stop-color:#005793"/>
					<stop  offset="1" style="stop-color:#006DA9"/>
				</linearGradient>
				<path class="st16" d="M30.2,18.8C30.2,18.8,30.2,18.9,30.2,18.8c0.3,0.4,0.5,1,0.5,1.6c0,0.1,0.1,0.1,0.1,0.1
					c0.1-0.1,0.1-0.1,0.2-0.2c-0.1-0.3-0.2-0.6-0.3-0.9C30.6,19.4,30.4,19,30.2,18.8z"/>
				
					<linearGradient id="SVGID_16_" gradientUnits="userSpaceOnUse" x1="1661.6517" y1="3819.2041" x2="1661.6517" y2="3795.8069" gradientTransform="matrix(0.7 0 0 0.7 -1135.1738 -2646.6572)">
					<stop  offset="0" style="stop-color:#00053D"/>
					<stop  offset="0.1748" style="stop-color:#000840"/>
					<stop  offset="0.3297" style="stop-color:#001046"/>
					<stop  offset="0.4771" style="stop-color:#001950"/>
					<stop  offset="0.6198" style="stop-color:#00245D"/>
					<stop  offset="0.758" style="stop-color:#002F6E"/>
					<stop  offset="0.809" style="stop-color:#003475"/>
					<stop  offset="0.9226" style="stop-color:#005793"/>
					<stop  offset="1" style="stop-color:#006DA9"/>
				</linearGradient>
				<path class="st17" d="M32.7,20.8c0.3-0.3,0.7-0.4,0.9-0.4c0.1-0.3,0.1-0.5-0.1-0.6c-0.2-0.1-0.6,0.1-1,0.3
					c-1,0.7-1.8,1.9-2.2,2.4c-0.2,0.3-0.5,0.7-1.1,1.4c-1,1.1-2.3,1.7-3.6,1.3c-0.7-0.2-1.2-0.8-1.4-1.5c0-0.1-0.1-0.2-0.2-0.1
					c-0.2,0.3-0.6,0.6-1,0.9c0,0-0.1,0.1-0.2,0c-0.1,0-0.3-0.4-0.4-0.5c0,0,0,0,0,0v0c0.1,0.5,0.1,0.5,0.2,0.7
					c0.1,0.2,0.3,0.4,0.3,0.4c0.1,0,0.2,0,0.2,0c0.3-0.1,0.8-0.6,1-0.8c0.1-0.1,0.1,0,0.2,0c0.1,0.3,0.2,0.5,0.4,0.8
					c0.2,0.3,0.5,0.6,1,0.7c0.6,0.2,1.2,0.2,2-0.1c0.7-0.3,1.4-0.8,1.9-1.3c0.6-0.7,0.9-1.1,1.1-1.4C31.1,22.5,31.8,21.6,32.7,20.8z
					"/>
				
					<linearGradient id="SVGID_17_" gradientUnits="userSpaceOnUse" x1="1643.8928" y1="3819.2051" x2="1643.8928" y2="3795.6575" gradientTransform="matrix(0.7 0 0 0.7 -1135.1738 -2646.6572)">
					<stop  offset="0" style="stop-color:#00053D"/>
					<stop  offset="0.1748" style="stop-color:#000840"/>
					<stop  offset="0.3297" style="stop-color:#001046"/>
					<stop  offset="0.4771" style="stop-color:#001950"/>
					<stop  offset="0.6198" style="stop-color:#00245D"/>
					<stop  offset="0.758" style="stop-color:#002F6E"/>
					<stop  offset="0.809" style="stop-color:#003475"/>
					<stop  offset="0.9226" style="stop-color:#005793"/>
					<stop  offset="1" style="stop-color:#006DA9"/>
				</linearGradient>
				<path class="st18" d="M14.9,22.6c-0.1-0.5,0-1.1,0.2-1.5c0.3-0.7,0.8-1,1.2-1.3c0.2-0.1,0.3-0.2,0.2-0.6c0-0.1-0.1-0.3-0.1-0.4
					c0,0.1-0.1,0.3-0.2,0.3c-0.5,0.3-1.2,0.8-1.5,1.4c-0.3,0.5-0.3,1.2,0.1,1.8C14.8,22.5,14.9,22.6,14.9,22.6z"/>
				
					<linearGradient id="SVGID_18_" gradientUnits="userSpaceOnUse" x1="1654.4349" y1="3819.197" x2="1654.4349" y2="3795.6614" gradientTransform="matrix(0.7 0 0 0.7 -1135.1738 -2646.6572)">
					<stop  offset="0" style="stop-color:#00053D"/>
					<stop  offset="0.1748" style="stop-color:#000840"/>
					<stop  offset="0.3297" style="stop-color:#001046"/>
					<stop  offset="0.4771" style="stop-color:#001950"/>
					<stop  offset="0.6198" style="stop-color:#00245D"/>
					<stop  offset="0.758" style="stop-color:#002F6E"/>
					<stop  offset="0.809" style="stop-color:#003475"/>
					<stop  offset="0.9226" style="stop-color:#005793"/>
					<stop  offset="1" style="stop-color:#006DA9"/>
				</linearGradient>
				<path class="st19" d="M18.8,15.8c-0.1-0.8,0.5-2,2-2.5c2-0.7,4.2-0.2,6,0.1c0.2-0.2,0.5-0.3,0.7-0.4c0.1-0.1,0-0.1,0-0.1
					c-2.3-0.4-4.7-1-7-0.1c-1.6,0.6-2.3,1.8-1.9,2.7C18.5,15.5,18.6,15.7,18.8,15.8z"/>
				
					<linearGradient id="SVGID_19_" gradientUnits="userSpaceOnUse" x1="1651.3625" y1="3819.2078" x2="1651.3625" y2="3795.6597" gradientTransform="matrix(0.7 0 0 0.7 -1135.1738 -2646.6572)">
					<stop  offset="0" style="stop-color:#00053D"/>
					<stop  offset="0.1748" style="stop-color:#000840"/>
					<stop  offset="0.3297" style="stop-color:#001046"/>
					<stop  offset="0.4771" style="stop-color:#001950"/>
					<stop  offset="0.6198" style="stop-color:#00245D"/>
					<stop  offset="0.758" style="stop-color:#002F6E"/>
					<stop  offset="0.809" style="stop-color:#003475"/>
					<stop  offset="0.9226" style="stop-color:#005793"/>
					<stop  offset="1" style="stop-color:#006DA9"/>
				</linearGradient>
				<path class="st20" d="M24.8,18.2c0.8-0.1,1.4-0.1,2.1-0.2c0.2,0,0.3,0,0.4,0c0.2,0.2,0.5,0.5,0.7,0.6c0.1,0,0.2,0,0.3,0.1
					c0.1,0,0.1-0.1,0.2-0.1c0.1-0.1,0.1-0.2,0.1-0.3c0-0.2-0.1-0.5-0.1-0.6c0,0.1,0,0.2-0.1,0.3c-0.1,0.1-0.1,0.1-0.2,0.1
					c-0.1,0-0.1,0-0.2-0.1c-0.2-0.1-0.5-0.3-0.7-0.6c-0.1-0.1-0.1-0.1-0.3-0.1c-0.7,0-1.8,0.1-2.6,0.2c-0.2,0-0.2,0.1-0.2,0.1
					c-1.2,2-2.5,4.1-3.9,5.6c-1.5,1.5-2.8,1.9-4.1,2c-1.6,0-2.9-0.9-3.3-2.4c0.2,0.9,0.7,1.9,1.4,2.4c0.7,0.5,1.3,0.6,2,0.6
					c1.5,0,2.9-0.6,4.4-2.1c1.4-1.4,2.6-3.4,3.9-5.4C24.6,18.3,24.6,18.2,24.8,18.2z"/>
				
					<linearGradient id="SVGID_20_" gradientUnits="userSpaceOnUse" x1="1651.923" y1="3819.2168" x2="1651.923" y2="3795.6487" gradientTransform="matrix(0.7 0 0 0.7 -1135.1738 -2646.6572)">
					<stop  offset="0" style="stop-color:#00053D"/>
					<stop  offset="0.1748" style="stop-color:#000840"/>
					<stop  offset="0.3297" style="stop-color:#001046"/>
					<stop  offset="0.4771" style="stop-color:#001950"/>
					<stop  offset="0.6198" style="stop-color:#00245D"/>
					<stop  offset="0.758" style="stop-color:#002F6E"/>
					<stop  offset="0.809" style="stop-color:#003475"/>
					<stop  offset="0.9226" style="stop-color:#005793"/>
					<stop  offset="1" style="stop-color:#006DA9"/>
				</linearGradient>
				<path class="st21" d="M22.4,18c-0.7,0-1.3,0.2-1.9,0.7c-0.2,0.1-0.4,0.1-0.5-0.1c0-0.1-0.1-0.1-0.1-0.2c0,0.3,0.1,0.6,0.2,0.8
					c0.1,0.1,0.4,0.2,0.6,0.1c0.5-0.3,0.9-0.5,1.3-0.6C22.1,18.4,22.3,18.2,22.4,18C22.4,18,22.4,18,22.4,18
					C22.4,18,22.4,18,22.4,18z"/>
				
					<linearGradient id="SVGID_21_" gradientUnits="userSpaceOnUse" x1="1678.5013" y1="3818.3862" x2="1678.5013" y2="3795.7705" gradientTransform="matrix(0.7 0 0 0.7 -1135.1738 -2646.6572)">
					<stop  offset="0" style="stop-color:#00053D"/>
					<stop  offset="0.1748" style="stop-color:#000840"/>
					<stop  offset="0.3297" style="stop-color:#001046"/>
					<stop  offset="0.4771" style="stop-color:#001950"/>
					<stop  offset="0.6198" style="stop-color:#00245D"/>
					<stop  offset="0.758" style="stop-color:#002F6E"/>
					<stop  offset="0.809" style="stop-color:#003475"/>
					<stop  offset="0.9226" style="stop-color:#005793"/>
					<stop  offset="1" style="stop-color:#006DA9"/>
				</linearGradient>
				<path class="st22" d="M39.8,12.3C39.8,12.3,39.8,12.3,39.8,12.3C39.8,12.3,39.8,12.3,39.8,12.3z"/>
				
					<linearGradient id="SVGID_22_" gradientUnits="userSpaceOnUse" x1="1667.9464" y1="3819.2095" x2="1667.9464" y2="3795.6609" gradientTransform="matrix(0.7 0 0 0.7 -1135.1738 -2646.6572)">
					<stop  offset="0" style="stop-color:#00053D"/>
					<stop  offset="0.1748" style="stop-color:#000840"/>
					<stop  offset="0.3297" style="stop-color:#001046"/>
					<stop  offset="0.4771" style="stop-color:#001950"/>
					<stop  offset="0.6198" style="stop-color:#00245D"/>
					<stop  offset="0.758" style="stop-color:#002F6E"/>
					<stop  offset="0.809" style="stop-color:#003475"/>
					<stop  offset="0.9226" style="stop-color:#005793"/>
					<stop  offset="1" style="stop-color:#006DA9"/>
				</linearGradient>
				<path class="st23" d="M24.8,16.8C24.8,16.9,24.8,16.9,24.8,16.8c0.3,0,0.5,0,0.7,0c0.7-1.2,1.5-1.8,2.8-2.7
					c0.1-0.1,0.2-0.1,0.2-0.4c2.4,0.5,4.3,1.4,7.5,1.5c0.9,0,2.3-0.3,3-0.7c0.8-0.5,1-0.9,1.1-1.2c0-0.1,0-0.3,0-0.4
					c0-0.1,0-0.3-0.1-0.4c0,0,0,0.1,0,0.2c0,0.4-0.4,0.9-1.2,1.3c-1,0.5-2,0.7-3,0.7c-2.5,0-4.9-1-7.3-1.5c0,0.1,0,0.2-0.1,0.3
					C26.9,14.4,25.7,15.4,24.8,16.8z"/>
				
					<linearGradient id="SVGID_23_" gradientUnits="userSpaceOnUse" x1="1661.8346" y1="3818.4016" x2="1661.8346" y2="3796.1538" gradientTransform="matrix(0.7 0 0 0.7 -1135.1738 -2646.6572)">
					<stop  offset="0" style="stop-color:#00053D"/>
					<stop  offset="0.1748" style="stop-color:#000840"/>
					<stop  offset="0.3297" style="stop-color:#001046"/>
					<stop  offset="0.4771" style="stop-color:#001950"/>
					<stop  offset="0.6198" style="stop-color:#00245D"/>
					<stop  offset="0.758" style="stop-color:#002F6E"/>
					<stop  offset="0.809" style="stop-color:#003475"/>
					<stop  offset="0.9226" style="stop-color:#005793"/>
					<stop  offset="1" style="stop-color:#006DA9"/>
				</linearGradient>
				<path class="st24" d="M28.1,16.1c0.1-0.1,0.2-0.1,0.3-0.1c0.1-0.2,0.1-0.4,0-0.5c-0.1-0.1-0.3-0.1-0.4,0c0,0-0.1,0.1-0.1,0.1
					c-0.2,0.3-0.3,0.6-0.3,0.8c0,0.1,0.1,0.1,0.1,0.1c0,0,0.1,0,0.1,0C27.9,16.4,28,16.3,28.1,16.1z"/>
				
					<linearGradient id="SVGID_24_" gradientUnits="userSpaceOnUse" x1="1662.5909" y1="3819.2173" x2="1662.5909" y2="3795.6553" gradientTransform="matrix(0.7 0 0 0.7 -1135.1738 -2646.6572)">
					<stop  offset="0" style="stop-color:#00053D"/>
					<stop  offset="0.1748" style="stop-color:#000840"/>
					<stop  offset="0.3297" style="stop-color:#001046"/>
					<stop  offset="0.4771" style="stop-color:#001950"/>
					<stop  offset="0.6198" style="stop-color:#00245D"/>
					<stop  offset="0.758" style="stop-color:#002F6E"/>
					<stop  offset="0.809" style="stop-color:#003475"/>
					<stop  offset="0.9226" style="stop-color:#005793"/>
					<stop  offset="1" style="stop-color:#006DA9"/>
				</linearGradient>
				<path class="st25" d="M29.2,17c0.1-0.3,0.2-0.5,0.1-0.9c0-0.3-0.1-0.6-0.2-0.7c0.2,0.3,0.1,0.7-0.1,1.1c-0.2,0.4-0.6,0.7-1,0.8
					c0,0-0.1,0-0.1,0.1c0,0.1,0.3,0.2,0.4,0.4c0,0,0.1,0,0.1,0C28.7,17.6,29,17.4,29.2,17z"/>
				
					<linearGradient id="SVGID_25_" gradientUnits="userSpaceOnUse" x1="1649.6823" y1="3819.2078" x2="1649.6823" y2="3795.6582" gradientTransform="matrix(0.7 0 0 0.7 -1135.1738 -2646.6572)">
					<stop  offset="0" style="stop-color:#00053D"/>
					<stop  offset="0.1748" style="stop-color:#000840"/>
					<stop  offset="0.3297" style="stop-color:#001046"/>
					<stop  offset="0.4771" style="stop-color:#001950"/>
					<stop  offset="0.6198" style="stop-color:#00245D"/>
					<stop  offset="0.758" style="stop-color:#002F6E"/>
					<stop  offset="0.809" style="stop-color:#003475"/>
					<stop  offset="0.9226" style="stop-color:#005793"/>
					<stop  offset="1" style="stop-color:#006DA9"/>
				</linearGradient>
				<path class="st26" d="M17.9,17.8c0.3,0.2,0.8,0.3,1.2,0.3c1.6-0.1,2.9-1.4,3.3-2.5c0.1-0.3,0-0.6,0-0.9c0-0.1,0-0.3-0.1-0.4h0
					c0.1,0.1,0.1,0.3,0,0.5c-0.7,1.6-2,2.8-3.5,2.9c-0.9,0-1.6-0.4-2-1.2C17,17.1,17.5,17.5,17.9,17.8z"/>
			</g>
		</g>
		<g>
			<path class="st27" d="M30.8,7.4C13.7,7.4,0,12.5,0,19c0,6.4,13.8,11.6,30.9,11.6c17,0,30.9-5.2,30.9-11.6
				C61.7,12.6,47.8,7.4,30.8,7.4z M0.2,19.1c0-1.4,0.6-2.7,1.8-4c4.4-4.5,16-7.5,28.7-7.5c16.9-0.1,30.7,5,30.7,11.2
				c0,1.4-0.6,2.7-1.9,3.9c-4.4,4.5-16,7.5-28.7,7.5C14,30.4,0.2,25.3,0.2,19.1z M61.5,18.1c0,0.1,0,0.1,0,0.2
				C61.5,18.2,61.5,18.1,61.5,18.1z"/>
		</g>
		<g>
			<g>
				
					<linearGradient id="SVGID_26_" gradientUnits="userSpaceOnUse" x1="29.4027" y1="44.5449" x2="22.2722" y2="17.9334" gradientTransform="matrix(1 0 0 1 -5.375 -8.5002)">
					<stop  offset="0" style="stop-color:#A6A6A6"/>
					<stop  offset="0.35" style="stop-color:#D9D9D9"/>
					<stop  offset="0.65" style="stop-color:#D9D9D9"/>
					<stop  offset="1" style="stop-color:#A6A6A6"/>
				</linearGradient>
				<path class="st28" d="M1.9,15c4.4-4.5,16-7.5,28.8-7.5c1.8,0,3.5,0,5.2,0.1c-1.7-0.1-3.4-0.2-5.1-0.2C13.8,7.5,0.1,12.6,0.1,19
					c0,0.3,0,0.6,0.1,0.9c0-0.3-0.1-0.5-0.1-0.8C0.1,17.7,0.7,16.3,1.9,15z"/>
			</g>
			
				<linearGradient id="SVGID_27_" gradientUnits="userSpaceOnUse" x1="48.1711" y1="29.9818" x2="41.0758" y2="3.5018" gradientTransform="matrix(1 0 0 1 -5.375 -8.5002)">
				<stop  offset="0" style="stop-color:#A6A6A6"/>
				<stop  offset="0.35" style="stop-color:#D9D9D9"/>
				<stop  offset="0.65" style="stop-color:#D9D9D9"/>
				<stop  offset="1" style="stop-color:#A6A6A6"/>
			</linearGradient>
			<path class="st29" d="M59.6,22.8c-4.4,4.5-16,7.5-28.8,7.6c-1.8,0-3.6,0-5.3-0.1c1.7,0.1,3.5,0.2,5.2,0.2
				c17,0,30.8-5.2,30.8-11.5c0-0.2,0-0.5-0.1-0.7c0,0.2,0,0.4,0,0.6C61.6,20.2,60.9,21.6,59.6,22.8z"/>
		</g>
		
			<linearGradient id="SVGID_28_" gradientUnits="userSpaceOnUse" x1="1665.7069" y1="3795.1694" x2="1665.7069" y2="3828.9365" gradientTransform="matrix(0.7 0 0 0.7 -1135.186 -2649.5164)">
			<stop  offset="0" style="stop-color:#FFFFFF"/>
			<stop  offset="0.5559" style="stop-color:#FDFDFD"/>
			<stop  offset="0.691" style="stop-color:#F9F9F9"/>
			<stop  offset="0.8" style="stop-color:#CCCCCC"/>
			<stop  offset="1" style="stop-color:#B3B3B3"/>
		</linearGradient>
		<path class="st30" d="M30.8,29.1c-16.1,0-29.1-4.5-29.1-10.1c0-5.6,13-10.1,29.1-10.1c16.1,0,29.1,4.5,29.1,10.1
			C59.9,24.5,46.9,29.1,30.8,29.1z M30.8,9.7c-15.5,0-28.1,4.1-28.1,9.3c0,5.1,12.6,9.3,28.1,9.3c15.5,0,28.1-4.1,28.1-9.3
			C58.9,13.8,46.3,9.7,30.8,9.7z"/>
		
			<linearGradient id="SVGID_29_" gradientUnits="userSpaceOnUse" x1="1672.6182" y1="3801.9006" x2="1672.6182" y2="3818.6467" gradientTransform="matrix(0.7 0 0 0.7 -1135.186 -2646.6697)">
			<stop  offset="0" style="stop-color:#FFFFFF"/>
			<stop  offset="0.5559" style="stop-color:#FDFDFD"/>
			<stop  offset="0.691" style="stop-color:#F9F9F9"/>
			<stop  offset="0.8" style="stop-color:#CCCCCC"/>
			<stop  offset="1" style="stop-color:#B3B3B3"/>
		</linearGradient>
		<path class="st31" d="M48.9,15.6c0-0.1,0-0.1-0.1-0.1c-0.5,0-1.1,0-1.6,0c-0.1,0-0.2,0-0.2,0.1c-0.2,0.3-2.4,3.6-2.8,4.2
			c-0.1,0.1-0.2,0.1-0.2,0c0-0.4-0.4-0.8-0.9-1c-0.4-0.2-0.8-0.2-1.2-0.1c-0.7,0.1-1.4,0.5-1.9,0.9c-0.8,0.6-1.6,1.5-2.5,2.1
			c-0.5,0.3-1.2,0.6-1.7,0.2c-0.4-0.4-0.4-1.3,0.3-2c0.1-0.1,0.2,0,0.1,0.1c-0.1,0.3,0,0.6,0.2,0.8c0.3,0.3,0.7,0.3,1,0.1
			c0.4-0.2,0.7-0.6,0.7-1c0.1-0.7-0.4-1.3-1.1-1.4c-0.5,0-1.1,0.1-1.6,0.6c-0.3,0.2-0.4,0.4-0.6,0.7c-0.1,0.1-0.1,0.1-0.1,0
			c0-0.9-0.3-1.4-1.1-1.4c-0.6,0-1.2,0.3-1.7,0.7c-0.5,0.4-1,1-1.5,1.5c-0.1,0.1-0.1,0.1-0.1-0.1c0-0.6-0.2-1.2-0.4-1.6
			c-0.1-0.1-0.3-0.2-0.5-0.1c-0.1,0-0.4,0.2-0.6,0.3c-0.1,0.1-0.1,0.2-0.1,0.4c0.3,0.9,0.2,1.9-0.2,2.7c-0.3,0.8-1,1.5-1.7,1.7
			c-0.5,0.2-1,0.1-1.3-0.4c-0.4-0.6-0.3-1.6,0.4-2.5c0.6-0.8,1.4-1.3,2.2-1.6c0.1,0,0.1-0.1,0.1-0.2c0-0.1-0.1-0.3-0.1-0.4
			c-0.1-0.2-0.3-0.2-0.5-0.2c-0.6,0.1-1.1,0.3-1.7,0.6c-1.4,0.8-2.1,2.2-2.4,3c-0.1,0.4-0.3,0.6-0.4,0.8c-0.2,0.3-0.5,0.5-1,1
			c0,0-0.1,0.1,0,0.2c0.1,0.1,0.3,0.5,0.4,0.5c0.1,0,0.2,0,0.2,0c0.4-0.2,0.8-0.6,1-0.9c0.1-0.1,0.1-0.1,0.2,0.1
			c0.2,0.7,0.7,1.3,1.4,1.5c1.3,0.4,2.6-0.2,3.6-1.3c0.6-0.7,0.9-1.1,1.1-1.4c0.4-0.5,1.2-1.7,2.2-2.4c0.4-0.3,0.8-0.5,1-0.3
			c0.2,0.1,0.2,0.4,0,0.9c-1,1.8-2.5,3.9-2.7,4.5c0,0.1,0,0.2,0.1,0.2c0.5,0,1,0,1.5,0c0.1,0,0.1,0,0.2-0.1c0.8-1.2,1.5-2.3,2.3-3.5
			c0-0.1,0.1,0,0.1,0c0,0.3,0.1,0.6,0.2,0.9c0.3,0.5,0.7,0.6,1.2,0.6c0.4,0,0.5-0.1,0.9-0.2c0.3-0.1,0.6-0.3,0.8-0.4
			c0.1-0.1,0.1,0.1,0.1,0.1c-0.2,0.9,0,2.1,1,2.5c1.1,0.6,2.4-0.2,3.1-0.9c0.1-0.1,0.1-0.1,0.2,0.1c0,0.3,0.1,0.6,0.4,0.8
			c0.6,0.6,1.8,0.4,3-0.6c0.8-0.6,1.6-1.4,2.3-2.3c0,0,0-0.1,0-0.1c-0.1-0.1-0.3-0.2-0.4-0.4c0,0-0.1,0-0.2,0
			c-0.8,0.7-1.4,1.5-2.4,2.2c-0.3,0.2-0.9,0.4-1.1,0.1c-0.1-0.1-0.1-0.3,0-0.5C44.2,22.9,48.7,16,48.9,15.6z M43,21.4
			c0,0.1,0.1,0.1,0.1,0.1c0,0,0,0,0,0.1c-0.2,0.4-0.4,0.6-0.6,1c-0.2,0.3-0.5,0.6-0.8,0.8c-0.5,0.4-1.1,0.8-1.6,0.5
			c-0.2-0.1-0.3-0.4-0.3-0.7c0-0.7,0.3-1.5,0.9-2.2c0.7-0.9,1.6-1.4,2.1-1.1c0.6,0.3,0.4,0.9,0.1,1.4C43,21.3,43,21.4,43,21.4z"/>
		
			<linearGradient id="SVGID_30_" gradientUnits="userSpaceOnUse" x1="1659.293" y1="3795.5269" x2="1659.293" y2="3818.7539" gradientTransform="matrix(0.7 0 0 0.7 -1135.186 -2646.6697)">
			<stop  offset="0" style="stop-color:#FFFFFF"/>
			<stop  offset="0.5559" style="stop-color:#FDFDFD"/>
			<stop  offset="0.691" style="stop-color:#F9F9F9"/>
			<stop  offset="0.8" style="stop-color:#CCCCCC"/>
			<stop  offset="1" style="stop-color:#B3B3B3"/>
		</linearGradient>
		<path class="st32" d="M16.2,25.3c-1.7,0-3.2-1-3.3-2.8c-0.1-1,0.2-1.9,0.8-2.6c0.5-0.7,1.4-1.2,2.1-1.3c0.2,0,0.5,0,0.7,0.1
			c0.2,0.2,0.1,0.5-0.1,0.6c-0.5,0.3-1.2,0.8-1.5,1.4c-0.3,0.5-0.3,1.2,0.1,1.8c0.7,1,2.6,1,4.3-0.6c0.4-0.4,0.8-0.8,1.2-1.2
			c0.8-0.9,1-1.2,2.1-2.6c0,0,0,0,0,0c0,0,0,0-0.1,0c-0.7,0-1.3,0.2-1.9,0.7c-0.2,0.1-0.4,0.1-0.5-0.1c-0.1-0.2,0-0.4,0.2-0.6
			c0.9-0.6,2-0.8,3-0.9c0,0,0.1,0,0.1-0.1c0.4-0.5,0.8-1,1.2-1.6c0.5-0.6,1.1-1.1,1.5-1.5c0.6-0.5,1-0.7,1.5-1c0.1-0.1,0-0.1,0-0.1
			c-2.3-0.4-4.7-1-7-0.1c-1.6,0.6-2.3,1.8-1.9,2.7c0.2,0.6,1,0.7,1.8,0.3c0.6-0.3,1.2-0.8,1.6-1.4c0.2-0.3,0.7-0.1,0.4,0.5
			c-0.7,1.6-2,2.8-3.5,2.9c-1.3,0-2.2-0.9-2.2-2.1c0-2.4,2.6-3.9,5.4-4.2c3.3-0.3,6.5,0.6,9.8,1c2.5,0.3,5,0.3,7.5-0.3
			c0.3-0.1,0.5,0.1,0.5,0.4c0,0.4-0.4,0.9-1.2,1.3c-1,0.5-2,0.7-3,0.7c-2.5,0-4.9-1-7.3-1.5c0,0.1,0,0.2-0.1,0.3
			c-1.4,1-2.6,2-3.4,3.4c0,0,0,0.1,0,0.1c0.7,0,1.3-0.1,2-0.1c0.1,0,0.1,0,0.1-0.1c-0.1-0.5,0.1-1,0.5-1.4c0.4-0.4,1-0.4,1.4-0.2
			c0.4,0.3,0.4,0.9,0.2,1.3c-0.2,0.4-0.6,0.7-1,0.8c0,0-0.1,0-0.1,0.1c0,0.1,0.5,0.4,0.6,0.5c0,0.1,0,0.2-0.1,0.3
			c-0.1,0.1-0.1,0.1-0.2,0.1c-0.1,0-0.1,0-0.2-0.1c-0.2-0.1-0.5-0.3-0.7-0.6c-0.1-0.1-0.1-0.1-0.3-0.1c-0.7,0-1.8,0.1-2.6,0.2
			c-0.2,0-0.2,0.1-0.2,0.1c-1.2,2-2.5,4.1-3.9,5.6C18.8,24.9,17.5,25.3,16.2,25.3z M27.7,16.5c0,0.1,0.1,0.1,0.1,0.1
			c0.2,0,0.5-0.2,0.6-0.5c0.1-0.2,0.2-0.5,0.1-0.6c-0.1-0.1-0.3-0.1-0.5,0.1C27.7,15.8,27.6,16.2,27.7,16.5L27.7,16.5"/>
	</g>
	<g>
		<path class="st0" d="M80.6,0.3h15.1v4H85v4.2h9.5v4H85v7.7h-4.4V0.3z"/>
		<path class="st0" d="M97.6,10.3L97.6,10.3c0-5.7,4.5-10.3,10.6-10.3c6.1,0,10.5,4.6,10.5,10.2v0.1c0,5.6-4.5,10.3-10.6,10.3
			C102,20.5,97.6,16,97.6,10.3z M114.1,10.3L114.1,10.3c0-3.5-2.5-6.3-6-6.3c-3.5,0-6,2.8-6,6.2v0.1c0,3.4,2.5,6.2,6,6.2
			C111.7,16.5,114.1,13.7,114.1,10.3z"/>
		<path class="st0" d="M121.5,0.3h9.1c2.5,0,4.5,0.7,5.8,2c1.1,1.1,1.7,2.7,1.7,4.5v0.1c0,3.2-1.7,5.2-4.3,6.2l4.8,7.1h-5.1
			l-4.3-6.4h-0.1h-3.4v6.4h-4.4V0.3z M130.3,10c2.1,0,3.3-1.1,3.3-2.8V7.1c0-1.9-1.3-2.8-3.4-2.8h-4.3V10H130.3z"/>
		<path class="st0" d="M140.5,10.3L140.5,10.3c0-5.7,4.3-10.3,10.4-10.3c3.7,0,6,1.2,7.8,3.1l-2.8,3.2c-1.5-1.4-3.1-2.2-5.1-2.2
			c-3.3,0-5.8,2.8-5.8,6.2v0.1c0,3.4,2.4,6.2,5.8,6.2c2.3,0,3.7-0.9,5.2-2.3l2.8,2.8c-2,2.2-4.3,3.5-8.1,3.5
			C144.9,20.5,140.5,16,140.5,10.3z"/>
		<path class="st0" d="M159.8,10.3L159.8,10.3c0-5.7,4.5-10.3,10.6-10.3c6.1,0,10.5,4.6,10.5,10.2v0.1c0,5.6-4.5,10.3-10.6,10.3
			C164.2,20.5,159.8,16,159.8,10.3z M176.4,10.3L176.4,10.3c0-3.5-2.5-6.3-6-6.3s-6,2.8-6,6.2v0.1c0,3.4,2.5,6.2,6,6.2
			C173.9,16.5,176.4,13.7,176.4,10.3z"/>
		<path class="st0" d="M182.8,0.3h9.1c2.5,0,4.5,0.7,5.8,2c1.1,1.1,1.7,2.7,1.7,4.5v0.1c0,3.2-1.7,5.2-4.3,6.2l4.8,7.1h-5.1
			l-4.3-6.4h-0.1h-3.4v6.4h-4.4V0.3z M191.6,10c2.1,0,3.3-1.1,3.3-2.8V7.1c0-1.9-1.3-2.8-3.4-2.8h-4.3V10H191.6z"/>
	</g>
</g>
</svg>
